# xmcd
#
# Track frame offsets: 
#        150
#        15701
#        28690
#        47910
#        64946
#        78565
#        87240
#        100654
#        113232
#        140575
#        154656
#        170150
#
# Disc length: 2510 seconds
#
# Revision: 0
# Processed by: cddbd v1.5.2PL0 Copyright (c) Steve Scherf et al.
# Submitted via: ExactAudioCopy v0.95a5
#
DISCID=9e09cc0c
DTITLE=Teagen McClain - A Place For Me
DYEAR=2001
DGENRE=Country
TTITLE0=Fantasy
TTITLE1=That would be a lie
TTITLE2=I had a parade
TTITLE3=The wall on which I'm leaning
TTITLE4=Things about me
TTITLE5=I'm not really lonely
TTITLE6=The broken part of you
TTITLE7=Every time a plane goes by
TTITLE8=Last year
TTITLE9=A call from you
TTITLE10=I will get by
TTITLE11=Broken bottles
EXTD=
EXTT0=
EXTT1=
EXTT2=
EXTT3=
EXTT4=
EXTT5=
EXTT6=
EXTT7=
EXTT8=
EXTT9=
EXTT10=
EXTT11=
PLAYORDER=
